<svg width="960" height="720" xmlns="http://www.w3.org/2000/svg" xmlns:xlink="http://www.w3.org/1999/xlink" overflow="hidden"><g><rect x="0" y="0" width="960" height="720"/><path d="M65.5 0 408.5 0C444.675-1.50867e-14 474.001 29.3255 474.001 65.5003L474 131 0 131 0 65.5003C-7.54332e-15 29.3255 29.3254-2.263e-14 65.5-3.01734e-14Z" fill="#46B1E1" fill-rule="evenodd" transform="matrix(1 0 0 -1 352 512)"/><path d="M462.5 560 462.5 560C457.253 560 453 555.747 453 550.5L453 509 472 509 472 550.5C472 555.747 467.747 560 462.5 560Z" fill="#46B1E1" fill-rule="evenodd"/><path d="M496.5 560 496.5 560C491.253 560 487 555.747 487 550.5L487 509 506 509 506 550.5C506 555.747 501.747 560 496.5 560Z" fill="#46B1E1" fill-rule="evenodd"/><path d="M530.5 560 530.5 560C525.253 560 521 555.747 521 550.5L521 509 540 509 540 550.5C540 555.747 535.747 560 530.5 560Z" fill="#46B1E1" fill-rule="evenodd"/><path d="M564.5 560 564.5 560C559.253 560 555 555.747 555 550.5L555 509 574 509 574 550.5C574 555.747 569.747 560 564.5 560Z" fill="#46B1E1" fill-rule="evenodd"/><path d="M598.5 560 598.5 560C593.253 560 589 555.747 589 550.5L589 509 608 509 608 550.5C608 555.747 603.747 560 598.5 560Z" fill="#46B1E1" fill-rule="evenodd"/><path d="M450 688C271.612 688 127 540.702 127 359 127 177.298 271.612 30.0001 450 30.0001 450.663 30.0001 451.325 30.0021 451.987 30.0062L451.338 137.408C332.27 136.648 235.147 235.243 234.408 357.625 233.669 480.007 329.594 579.833 448.662 580.592 449.108 580.595 449.554 580.597 450 580.597Z" fill="#46B1E1" fill-rule="evenodd"/><text fill="#E97132" font-family="Aptos Black,Aptos Black_MSFontService,sans-serif" font-weight="900" font-size="77.3333" transform="translate(356.493 357)">ΔCCESSIBLE</text><text font-family="Aptos Black,Aptos Black_MSFontService,sans-serif" font-weight="900" font-size="77.3333" transform="translate(675.947 450)">MRI</text></g></svg>